# xmcd CD database file
#
# Track frame offsets:
#	150
#	20513
#	22605
#	78258
#	119773
#	154385
#	214458
#	226833
#
# Disc length: 3348 seconds
#
# Revision: 0
# Processed by: cddbd v1.5.1PL0 Copyright (c) Steve Scherf et al.
# Submitted via: CDex 1.51
#
DISCID=5f0d1208
DTITLE=NEXUS - NEXUS in Canada, Live at the Yardbird Suite
DYEAR=1987
DGENRE=Jazz
TTITLE0=You Must Believe In Spring
TTITLE1=Presentation
TTITLE2=Emma
TTITLE3=The Party
TTITLE4=Sometime Ago
TTITLE5=Nubia
TTITLE6=Dreams So Real
TTITLE7=Silhouette
EXTD=YEAR: 1987
EXTT0=
EXTT1=
EXTT2=
EXTT3=
EXTT4=
EXTT5=
EXTT6=
EXTT7=
PLAYORDER=
